<svg xmlns="http://www.w3.org/2000/svg" viewBox="0 0 511.998 511.998" style="enable-background:new 0 0 511.998 511.998" xml:space="preserve"><path d="M384.992 199.315c12.075 12.203 28.16 18.965 45.333 18.987h.192c17.088 0 33.131-6.635 45.227-18.731 24.811-24.811 24.939-65.301.256-90.24l-93.675-94.784a21.25 21.25 0 0 0-11.691-11.499l-2.389-.96c-7.957-3.797-17.771-2.411-24.363 4.181-48.448 48.448-127.317 48.448-175.808-.043-6.421-6.421-15.957-7.872-23.765-4.373l-2.944 1.195a21.248 21.248 0 0 0-11.691 11.499l-93.696 94.784c-24.661 24.939-24.533 65.429.277 90.24 12.096 12.096 28.139 18.731 45.227 18.731h.192c15.765-.021 30.656-5.739 42.496-16.299v93.184L78.368 432.574c-6.208 18.624-3.2 38.443 8.277 54.357 11.499 15.915 29.333 25.045 48.939 25.045h3.136c26.027 0 49.024-16.576 57.237-41.237l50.24-150.763h13.44l69.419 156.181c9.963 22.443 31.701 35.84 54.997 35.84a61.93 61.93 0 0 0 20.544-3.52c15.531-5.44 27.733-16.896 34.389-32.277 6.912-16.043 6.805-34.432-.341-50.475L380.17 294.12v-98.88l4.822 4.075z" fill='current'/></svg>