<svg 
xmlns="http://www.w3.org/2000/svg" 
viewBox="0 -256 1850 1850">
<path 
d="M1664 576q-152 236-381 353 61-104 61-225 0-185-131.5-316.5T896 256q-185 0-316.5 131.5T448 704q0 121 61 225-229-117-381-353 133-205 333.5-326.5T896 128q234 0 434.5 121.5T1664 576zM944 960q0 20-14 34t-34 14q-125 0-214.5-89.5T592 704q0-20 14-34t34-14q20 0 34 14t14 34q0 86 61 147t147 61q20 0 34 14t14 34zm848-384q0-34-20-69-140-230-376.5-368.5T896 0Q633 0 396.5 139T20 507Q0 542 0 576t20 69q140 229 376.5 368T896 1152q263 0 499.5-139T1772 645q20-35 20-69z" 
fill="current"
transform="matrix(1 0 0 -1 30.373 1259.898)"/>
</svg>