<svg xmlns="http://www.w3.org/2000/svg" viewBox="0 -256 1850 1850"><path fill='current'
d="M378.27 174.512c-8.783-3.561-21.691-20.321-35.391-38.051-24.84-32.23-53.004-68.753-83.352-68.753-40.097 0-61.975 24.353-69.544 34.862-8.47-9.521-31.644-31.603-64.223-31.603-25.578 0-56.763 36.611-84.247 68.911-15.871 18.63-30.859 36.227-38.864 38.952a3.939 3.939 0 0 0-2.643 3.485 3.904 3.904 0 0 0 2.237 3.765c13.442 6.338 27.222 23.446 43.175 43.245 22.319 27.722 47.625 59.139 81.238 72.035 20.466 7.843 42.46 11.666 67.266 11.666 23.731 0 46.725-3.626 64.095-6.763 29.86-5.415 74.511-64.763 101.175-100.234 8.517-11.34 17.336-23.057 19.555-24.486 1.289-.738 2.08-2.167 1.975-3.666a3.857 3.857 0 0 0-2.452-3.365zm-41.223 11.589c-17.742 11.729-62.102 35.599-133.15 38.865-73.424 3.322-127.648-22.621-150.874-36.401 15.812-3.689 29.221-11.125 41.281-17.823 13.675-7.581 25.497-14.134 37.824-14.134 15.244 0 30.267 4.938 42.333 8.911 9.684 3.189 17.369 5.688 23.011 5.27 5.077-.337 11.805-2.324 19.589-4.642 11.84-3.509 26.584-7.877 40.793-7.877 10.213 0 23.308 6.083 37.168 12.531 13.757 6.424 27.896 13 42.025 15.3z"/></svg>