<svg xmlns="http://www.w3.org/2000/svg" viewBox="0 0 511.998 511.998" style="enable-background:new 0 0 511.998 511.998" xml:space="preserve"><path d="M292.749 16.905c-23.012 11.931-50.491 11.928-73.501 0C119.821-34.64.538 37.98.538 150.02c0 70.51 58.455 361.978 149.849 361.978 32.059 0 61.235-32.705 89.198-99.983 6.045-14.544 26.783-14.548 32.828 0 27.963 67.278 57.138 99.983 89.198 99.983 90.498 0 149.849-289.225 149.849-361.978-.002-112.003-119.243-184.682-218.711-133.115zm68.86 468.412c-18.961 0-42.491-30.449-64.556-83.543-15.163-36.478-66.94-36.496-82.109.002-22.064 53.091-45.595 83.541-64.556 83.541-58.446 0-123.166-252.499-123.166-335.295 0-92.19 98.156-151.721 179.746-109.427 30.702 15.916 67.36 15.916 98.062 0 81.506-42.253 179.744 17.15 179.744 109.427.001 82.44-64.676 335.295-123.165 335.295z"/><path d="M435.855 136.679c-7.368 0-13.342 5.972-13.342 13.342 0 22.275-9.158 85.64-29.516 156.764-2.028 7.082 2.071 14.47 9.154 16.496 7.053 2.028 14.464-2.049 16.497-9.154 21.069-73.606 30.546-140.273 30.546-164.105.003-7.37-5.971-13.343-13.339-13.343zM150.388 62.434c-48.295 0-87.588 39.291-87.588 87.586 0 7.37 5.974 13.342 13.342 13.342s13.342-5.972 13.342-13.342c0-33.582 27.32-60.902 60.904-60.902 7.368 0 13.342-5.972 13.342-13.342s-5.974-13.342-13.342-13.342z" fill='current'/></svg>